<svg width="24" height="24" viewBox="0 0 24 24" fill="none" xmlns="http://www.w3.org/2000/svg">
<path d="M18.8635 10.6209C16.0172 7.90336 12.1879 7.53279 10.7828 7.49674V3.8939C10.7828 3.61081 10.5512 3.3792 10.2681 3.3792C10.1498 3.3792 10.0313 3.42035 9.9387 3.49756L1.18905 10.7032C0.96772 10.8834 0.936839 11.2076 1.11701 11.429C1.13762 11.4547 1.16333 11.4753 1.18905 11.501L9.93875 18.7066C10.1601 18.8867 10.4843 18.8559 10.6645 18.6346C10.7417 18.5419 10.7828 18.4287 10.7828 18.3052V14.5685C12.2188 14.1773 17.726 13.184 21.1384 19.5765C21.2258 19.7463 21.4008 19.8492 21.5913 19.8492C21.756 19.8492 21.9156 19.772 22.0185 19.6228C22.0802 19.5353 22.106 19.4272 22.106 19.3191C22.1009 15.5979 21.0097 12.6745 18.8635 10.6209ZM13.0423 13.2767C11.3284 13.2767 10.124 13.6885 10.0932 13.7039C9.88727 13.7759 9.75346 13.9715 9.75346 14.1877V17.2141L2.3265 11.0996L9.75346 4.98507V8.01145C9.75346 8.15041 9.81006 8.28422 9.91303 8.38202C10.016 8.47983 10.1498 8.53127 10.2939 8.52615C10.3402 8.52615 15.0136 8.3563 18.1635 11.3724C19.7127 12.8547 20.6494 14.862 20.9634 17.3634C18.4723 14.0075 15.3121 13.2767 13.0423 13.2767Z" fill="black"/>
<path d="M9.63158 5V8L10.5789 9H13.4211H14.3684L15.3158 10H16.2632L17.2105 11H18.1579L19.1053 12V13L20.0526 14V15L21 17H20.0526L19.1053 15H18.1579L16.2632 14H15.3158L14.3684 13H12.4737H10.5789H9.63158V14V15V16V17H8.68421L7.73684 16L5.84211 15L4.89474 14L3.94737 13L3 12V11L5.84211 8L9.63158 5Z" fill="black"/>
<path d="M9.63158 8V5L5.84211 8L3 11V12L3.94737 13L4.89474 14L5.84211 15L7.73684 16L8.68421 17H9.63158V18V16V15V14V13H10.5789H12.4737H14.3684L15.3158 14H16.2632L18.1579 15H19.1053L20.0526 17H21L20.0526 15V14L19.1053 13V12L18.1579 11H17.2105L16.2632 10H15.3158L14.3684 9H13.4211H10.5789L9.63158 8Z" stroke="black" stroke-width="0.5"/>
<ellipse cx="10" cy="11" rx="8" ry="3" fill="black"/>
<ellipse cx="19.8026" cy="14.8073" rx="1.5" ry="3.5" transform="rotate(-24.1925 19.8026 14.8073)" fill="black"/>
</svg>
